<?xml version="1.0" encoding="utf-8"?>
<svg xmlns="http://www.w3.org/2000/svg" width="848" height="848" class="segno"><g transform="scale(16)"><path class="qrline" stroke="#0c7ea8" d="M4 4.5h7m31 0h7m-45 1h1m5 0h1m31 0h1m5 0h1m-45 1h1m1 0h3m1 0h1m31 0h1m1 0h3m1 0h1m-45 1h1m1 0h3m1 0h1m31 0h1m1 0h3m1 0h1m-45 1h1m1 0h3m1 0h1m31 0h1m1 0h3m1 0h1m-45 1h1m5 0h1m31 0h1m5 0h1m-45 1h7m31 0h7m-45 32h7m-7 1h1m5 0h1m-7 1h1m1 0h3m1 0h1m-7 1h1m1 0h3m1 0h1m-7 1h1m1 0h3m1 0h1m-7 1h1m5 0h1m-7 1h7"/><path class="qrline" stroke="#0b1120" d="M12 4.5h1m1 0h4m1 0h2m1 0h1m1 0h4m4 0h4m1 0h1m2 0h1m-29 1h1m1 0h1m3 0h1m1 0h1m1 0h3m3 0h1m2 0h2m2 0h3m1 0h1m-28 1h2m1 0h1m1 0h2m3 0h3m2 0h1m1 0h2m1 0h1m1 0h1m1 0h2m1 0h1m-27 1h8m2 0h3m4 0h6m1 0h1m1 0h2m-27 1h2m2 0h1m2 0h1m1 0h8m1 0h1m1 0h2m2 0h3m-29 1h1m1 0h4m1 0h6m3 0h3m1 0h1m2 0h3m-26 1h1m1 0h1m1 0h1m1 0h1m1 0h1m1 0h1m1 0h1m1 0h1m1 0h1m1 0h1m1 0h1m1 0h1m1 0h1m1 0h1m1 0h1m-29 1h2m1 0h2m1 0h1m1 0h1m3 0h1m3 0h1m2 0h1m3 0h2m1 0h3m-35 1h3m1 0h1m1 0h3m2 0h4m1 0h8m1 0h5m2 0h2m1 0h3m2 0h3m-45 1h1m3 0h1m7 0h3m2 0h1m3 0h1m2 0h2m1 0h5m1 0h1m1 0h3m2 0h3m1 0h1m-45 1h1m1 0h1m1 0h3m2 0h2m1 0h1m1 0h2m1 0h1m1 0h3m1 0h1m1 0h2m1 0h1m2 0h5m2 0h2m2 0h2m-39 1h1m2 0h4m1 0h2m1 0h2m1 0h1m1 0h4m1 0h3m1 0h1m1 0h3m1 0h1m3 0h5m-40 1h2m2 0h2m2 0h1m1 0h1m1 0h1m2 0h1m1 0h2m1 0h5m1 0h1m1 0h1m9 0h2m-43 1h1m2 0h1m1 0h3m1 0h1m1 0h1m4 0h2m1 0h3m1 0h1m2 0h3m1 0h1m2 0h3m1 0h2m3 0h1m-44 1h1m3 0h4m2 0h1m1 0h4m2 0h2m2 0h1m1 0h2m4 0h4m1 0h4m2 0h2m-42 1h2m4 0h1m1 0h1m1 0h1m3 0h3m1 0h2m1 0h1m1 0h5m1 0h6m1 0h6m-42 1h1m1 0h1m1 0h1m3 0h2m2 0h2m1 0h1m2 0h2m2 0h1m3 0h1m1 0h1m2 0h1m3 0h1m3 0h1m1 0h2m-42 1h1m1 0h1m3 0h3m1 0h2m1 0h1m1 0h1m1 0h1m1 0h1m4 0h1m2 0h1m1 0h1m2 0h3m1 0h2m1 0h1m1 0h1m-45 1h1m1 0h1m3 0h2m2 0h2m3 0h4m1 0h2m1 0h1m1 0h1m1 0h1m2 0h3m1 0h5m1 0h4m-44 1h1m1 0h2m1 0h1m4 0h4m1 0h1m2 0h1m1 0h2m1 0h1m4 0h1m1 0h1m1 0h1m3 0h2m1 0h4m-42 1h10m6 0h1m1 0h6m5 0h2m1 0h1m2 0h5m2 0h1m-43 1h1m2 0h1m3 0h2m1 0h1m4 0h1m2 0h2m3 0h2m1 0h2m1 0h1m4 0h2m3 0h1m1 0h1m1 0h1m-43 1h3m1 0h1m1 0h2m2 0h1m1 0h3m1 0h3m1 0h1m1 0h3m1 0h1m1 0h1m1 0h3m1 0h1m1 0h1m1 0h4m-42 1h3m3 0h1m2 0h2m1 0h1m3 0h3m3 0h2m3 0h1m2 0h1m1 0h1m1 0h1m3 0h5m-45 1h1m2 0h7m2 0h3m2 0h8m1 0h3m2 0h1m1 0h2m1 0h6m1 0h2m-45 1h1m2 0h1m1 0h1m1 0h1m1 0h1m3 0h1m2 0h3m2 0h4m10 0h4m2 0h1m1 0h2m-44 1h3m2 0h2m1 0h3m2 0h1m1 0h1m1 0h2m1 0h4m2 0h2m2 0h1m1 0h5m1 0h1m3 0h1m-44 1h2m2 0h1m4 0h5m4 0h1m2 0h2m4 0h1m2 0h1m1 0h1m1 0h2m2 0h1m2 0h3m-42 1h5m1 0h6m1 0h3m2 0h1m1 0h5m1 0h2m4 0h1m1 0h2m2 0h1m3 0h1m-44 1h2m5 0h1m3 0h2m3 0h2m1 0h2m1 0h1m1 0h2m1 0h1m3 0h1m2 0h2m4 0h2m1 0h1m-45 1h2m3 0h2m1 0h1m1 0h2m4 0h3m1 0h1m2 0h3m2 0h1m1 0h1m2 0h2m2 0h1m1 0h1m1 0h2m-43 1h1m1 0h4m1 0h2m3 0h4m5 0h1m1 0h1m4 0h1m1 0h1m1 0h1m1 0h2m2 0h1m3 0h3m-45 1h4m1 0h2m3 0h1m1 0h1m3 0h1m1 0h1m1 0h2m2 0h7m5 0h1m2 0h2m2 0h2m-44 1h1m2 0h1m2 0h2m1 0h1m3 0h1m11 0h5m1 0h1m3 0h2m3 0h2m1 0h1m-41 1h1m1 0h1m2 0h2m7 0h2m1 0h2m2 0h1m2 0h2m3 0h3m1 0h1m2 0h1m1 0h2m-43 1h4m3 0h2m2 0h3m3 0h1m4 0h6m3 0h1m2 0h1m1 0h2m1 0h4m-44 1h1m2 0h2m1 0h2m4 0h1m2 0h2m1 0h7m1 0h2m1 0h1m1 0h1m4 0h6m1 0h2m-37 1h3m3 0h1m1 0h3m1 0h1m3 0h2m1 0h1m1 0h3m3 0h2m3 0h1m1 0h1m1 0h1m-34 1h2m4 0h2m1 0h1m1 0h1m1 0h1m2 0h1m1 0h1m3 0h2m1 0h1m1 0h1m1 0h1m2 0h1m-35 1h3m1 0h2m1 0h2m2 0h1m3 0h3m2 0h2m1 0h2m2 0h1m3 0h4m-36 1h2m2 0h1m2 0h2m2 0h6m1 0h1m1 0h1m2 0h1m3 0h6m2 0h1m-36 1h7m1 0h1m3 0h1m2 0h2m1 0h2m2 0h2m8 0h1m2 0h2m-37 1h2m6 0h1m4 0h4m1 0h4m4 0h5m3 0h1m-29 1h2m2 0h3m2 0h1m1 0h1m3 0h6m5 0h1m1 0h1m-34 1h1m2 0h2m1 0h1m1 0h1m1 0h1m2 0h1m2 0h1m1 0h1m1 0h3m1 0h1m2 0h3m1 0h1m2 0h1"/><path class="qrline" stroke="#fff" d="M0 0.5h53m-53 1h53m-53 1h53m-53 1h53m-53 1h4m7 0h1m1 0h1m4 0h1m2 0h1m1 0h1m4 0h4m4 0h1m1 0h2m1 0h1m7 0h4m-53 1h4m1 0h5m1 0h1m1 0h1m1 0h3m1 0h1m1 0h1m3 0h3m1 0h2m2 0h2m3 0h1m1 0h2m1 0h5m1 0h4m-53 1h4m1 0h1m3 0h1m1 0h1m2 0h1m1 0h1m2 0h3m3 0h2m1 0h1m2 0h1m1 0h1m1 0h1m2 0h1m1 0h2m1 0h1m3 0h1m1 0h4m-53 1h4m1 0h1m3 0h1m1 0h2m8 0h2m3 0h4m6 0h1m1 0h1m2 0h1m1 0h1m3 0h1m1 0h4m-53 1h4m1 0h1m3 0h1m1 0h3m2 0h2m1 0h2m1 0h1m8 0h1m1 0h1m2 0h2m3 0h1m1 0h1m3 0h1m1 0h4m-53 1h4m1 0h5m1 0h1m1 0h1m4 0h1m6 0h3m3 0h1m1 0h2m3 0h4m1 0h5m1 0h4m-53 1h4m7 0h1m1 0h1m1 0h1m1 0h1m1 0h1m1 0h1m1 0h1m1 0h1m1 0h1m1 0h1m1 0h1m1 0h1m1 0h1m1 0h1m1 0h1m1 0h1m7 0h4m-53 1h12m2 0h1m2 0h1m1 0h1m1 0h3m1 0h3m1 0h2m1 0h3m2 0h1m3 0h12m-53 1h6m3 0h1m1 0h1m3 0h2m4 0h1m8 0h1m5 0h2m2 0h1m3 0h2m3 0h4m-53 1h4m1 0h3m1 0h7m3 0h2m1 0h3m1 0h2m2 0h1m5 0h1m1 0h1m3 0h2m3 0h1m1 0h4m-53 1h4m1 0h1m1 0h1m3 0h2m2 0h1m1 0h1m2 0h1m1 0h1m3 0h1m1 0h1m2 0h1m1 0h2m5 0h2m2 0h2m2 0h5m-53 1h9m1 0h2m4 0h1m2 0h1m2 0h1m1 0h1m4 0h1m3 0h1m1 0h1m3 0h1m1 0h3m5 0h4m-53 1h9m2 0h2m2 0h2m1 0h1m1 0h1m1 0h2m1 0h1m2 0h1m5 0h1m1 0h1m1 0h9m2 0h4m-53 1h6m1 0h2m1 0h1m3 0h1m1 0h1m1 0h4m2 0h1m3 0h1m1 0h2m3 0h1m1 0h2m3 0h1m2 0h3m1 0h4m-53 1h5m1 0h3m4 0h2m1 0h1m4 0h2m2 0h2m1 0h1m2 0h4m4 0h1m4 0h2m2 0h5m-53 1h6m2 0h4m1 0h1m1 0h1m1 0h3m3 0h1m2 0h1m1 0h1m5 0h1m6 0h1m6 0h5m-53 1h6m1 0h1m1 0h1m1 0h3m2 0h2m2 0h1m1 0h2m2 0h2m1 0h3m1 0h1m1 0h2m1 0h3m1 0h3m1 0h1m2 0h4m-53 1h7m1 0h1m1 0h3m3 0h1m2 0h1m1 0h1m1 0h1m1 0h1m1 0h4m1 0h2m1 0h1m1 0h2m3 0h1m2 0h1m1 0h1m1 0h4m-53 1h4m1 0h1m1 0h3m2 0h2m2 0h3m4 0h1m2 0h1m1 0h1m1 0h1m1 0h2m3 0h1m5 0h1m4 0h5m-53 1h4m1 0h1m2 0h1m1 0h4m4 0h1m1 0h2m1 0h1m2 0h1m1 0h4m1 0h1m1 0h1m1 0h3m2 0h1m4 0h6m-53 1h5m10 0h6m1 0h1m6 0h5m2 0h1m1 0h2m5 0h2m1 0h5m-53 1h5m1 0h2m1 0h3m2 0h1m1 0h4m1 0h2m2 0h3m2 0h1m2 0h1m1 0h4m2 0h3m1 0h1m1 0h1m1 0h4m-53 1h6m3 0h1m1 0h1m2 0h2m1 0h1m3 0h1m3 0h1m1 0h1m3 0h1m1 0h1m1 0h1m3 0h1m1 0h1m1 0h1m4 0h5m-53 1h6m3 0h3m1 0h2m2 0h1m1 0h3m3 0h3m2 0h3m1 0h2m1 0h1m1 0h1m1 0h3m5 0h4m-53 1h4m1 0h2m7 0h2m3 0h2m8 0h1m3 0h2m1 0h1m2 0h1m6 0h1m2 0h4m-53 1h4m1 0h2m1 0h1m1 0h1m1 0h1m1 0h3m1 0h2m3 0h2m4 0h10m4 0h2m1 0h1m2 0h4m-53 1h5m3 0h2m2 0h1m3 0h2m1 0h1m1 0h1m2 0h1m4 0h2m2 0h2m1 0h1m5 0h1m1 0h3m1 0h5m-53 1h4m2 0h2m1 0h4m5 0h4m1 0h2m2 0h4m1 0h2m1 0h1m1 0h1m2 0h2m1 0h2m3 0h5m-53 1h6m5 0h1m6 0h1m3 0h2m1 0h1m5 0h1m2 0h4m1 0h1m2 0h2m1 0h3m1 0h4m-53 1h5m2 0h5m1 0h3m2 0h3m2 0h1m2 0h1m1 0h1m2 0h1m1 0h3m1 0h2m2 0h4m2 0h1m1 0h4m-53 1h4m2 0h3m2 0h1m1 0h1m2 0h4m3 0h1m1 0h2m3 0h2m1 0h1m1 0h2m2 0h2m1 0h1m1 0h1m2 0h6m-53 1h4m1 0h1m4 0h1m2 0h3m4 0h5m1 0h1m1 0h4m1 0h1m1 0h1m1 0h1m2 0h2m1 0h3m3 0h4m-53 1h4m4 0h1m2 0h3m1 0h1m1 0h3m1 0h1m1 0h1m2 0h2m7 0h5m1 0h2m2 0h2m2 0h4m-53 1h5m1 0h2m1 0h2m2 0h1m1 0h3m1 0h11m5 0h1m1 0h3m2 0h3m2 0h1m1 0h4m-53 1h8m1 0h1m1 0h2m2 0h7m2 0h1m2 0h2m1 0h2m2 0h3m3 0h1m1 0h2m1 0h1m2 0h5m-53 1h5m4 0h3m2 0h2m3 0h3m1 0h4m6 0h3m1 0h2m1 0h1m2 0h1m4 0h5m-53 1h4m1 0h2m2 0h1m2 0h4m1 0h2m2 0h1m7 0h1m2 0h1m1 0h1m1 0h4m6 0h1m2 0h4m-53 1h12m3 0h3m1 0h1m3 0h1m1 0h3m2 0h1m1 0h1m3 0h3m2 0h3m1 0h1m1 0h1m1 0h4m-53 1h4m7 0h4m2 0h4m2 0h1m1 0h1m1 0h1m1 0h2m1 0h1m1 0h3m2 0h1m1 0h1m1 0h1m1 0h2m1 0h5m-53 1h4m1 0h5m1 0h2m3 0h1m2 0h1m2 0h2m1 0h3m3 0h2m2 0h1m2 0h2m1 0h3m4 0h5m-53 1h4m1 0h1m3 0h1m1 0h1m2 0h2m1 0h2m2 0h2m6 0h1m1 0h1m1 0h2m1 0h3m6 0h2m1 0h5m-53 1h4m1 0h1m3 0h1m1 0h1m7 0h1m1 0h3m1 0h2m2 0h1m2 0h2m2 0h8m1 0h2m2 0h4m-53 1h4m1 0h1m3 0h1m1 0h1m2 0h6m1 0h4m4 0h1m4 0h4m5 0h3m1 0h6m-53 1h4m1 0h5m1 0h7m2 0h2m3 0h2m1 0h1m1 0h3m6 0h5m1 0h1m1 0h6m-53 1h4m7 0h2m1 0h2m2 0h1m1 0h1m1 0h1m1 0h2m1 0h2m1 0h1m1 0h1m3 0h1m1 0h2m3 0h1m1 0h2m1 0h5m-53 1h53m-53 1h53m-53 1h53m-53 1h53"/></g></svg>
